<?xml version="1.0" standalone="no"?>
<!DOCTYPE svg PUBLIC "-//W3C//DTD SVG 20010904//EN"
 "http://www.w3.org/TR/2001/REC-SVG-20010904/DTD/svg10.dtd">
<svg version="1.0" xmlns="http://www.w3.org/2000/svg"
 width="512.000000pt" height="512.000000pt" viewBox="0 0 512.000000 512.000000"
 preserveAspectRatio="xMidYMid meet">

<g transform="translate(0.000000,512.000000) scale(0.100000,-0.100000)"
fill="#000000" stroke="none">
<path d="M1886 4147 c-17 -12 -18 -26 -14 -128 5 -119 16 -157 62 -207 48 -54
150 -81 301 -82 77 0 162 -19 201 -45 29 -19 64 -72 64 -98 0 -9 -20 -36 -44
-60 -31 -29 -46 -54 -51 -79 l-7 -38 -1009 0 c-889 0 -1014 -2 -1047 -15 -47
-20 -78 -50 -105 -100 l-22 -40 0 -1015 0 -1015 25 -45 c14 -24 45 -58 68 -75
l44 -30 2208 0 2208 0 44 30 c23 17 54 51 68 75 l25 45 0 1015 0 1015 -25 45
c-14 24 -45 58 -68 75 l-44 30 -1023 3 -1023 2 -6 35 c-8 38 -56 100 -86 110
-12 4 -21 20 -25 48 -17 101 -85 174 -192 207 -46 14 -115 24 -212 30 -201 11
-216 24 -227 196 -5 72 -11 102 -22 112 -20 16 -44 15 -66 -1z m702 -693 c39
-27 28 -44 -28 -44 -37 0 -50 4 -50 14 0 13 36 46 50 46 3 0 16 -7 28 -16z
m2147 -158 c57 -24 65 -53 65 -246 l0 -170 -2240 0 -2240 0 0 170 c0 192 8
221 63 245 49 21 4301 22 4352 1z m-3827 -683 l-3 -158 -292 -3 -293 -2 0 160
0 160 295 0 296 0 -3 -157z m422 -3 l0 -161 -157 3 -158 3 -3 158 -3 157 161
0 160 0 0 -160z m430 0 l0 -160 -160 0 -160 0 0 160 0 160 160 0 160 0 0 -160z
m428 3 l-3 -158 -157 -3 -158 -3 0 161 0 160 160 0 161 0 -3 -157z m422 -3 l0
-161 -157 3 -158 3 -3 158 -3 157 161 0 160 0 0 -160z m430 0 l0 -160 -160 0
-160 0 0 160 0 160 160 0 160 0 0 -160z m428 3 l-3 -158 -157 -3 -158 -3 0
161 0 160 160 0 161 0 -3 -157z m422 -3 l0 -161 -157 3 -158 3 -3 158 -3 157
161 0 160 0 0 -160z m910 0 l0 -160 -400 0 -400 0 0 160 0 160 400 0 400 0 0
-160z m-3680 -420 l0 -160 -400 0 -400 0 0 160 0 160 400 0 400 0 0 -160z
m428 -2 l3 -158 -161 0 -160 0 0 160 0 161 158 -3 157 -3 3 -157z m422 2 l0
-160 -160 0 -160 0 0 153 c0 85 3 157 7 160 3 4 75 7 160 7 l153 0 0 -160z
m430 0 l0 -160 -160 0 -160 0 0 160 0 160 160 0 160 0 0 -160z m428 -2 l3
-158 -161 0 -160 0 0 160 0 161 158 -3 157 -3 3 -157z m422 2 l0 -160 -160 0
-160 0 0 153 c0 85 3 157 7 160 3 4 75 7 160 7 l153 0 0 -160z m430 0 l0 -160
-160 0 -160 0 0 160 0 160 160 0 160 0 0 -160z m588 -2 l3 -158 -241 0 -240 0
0 160 0 160 238 -2 237 -3 3 -157z m532 -213 l0 -375 -215 0 -215 0 0 368 c0
203 3 372 7 375 3 4 100 7 215 7 l208 0 0 -375z m-4000 -215 l0 -160 -240 0
-240 0 0 160 0 160 240 0 240 0 0 -160z m430 0 l0 -160 -160 0 -160 0 0 160 0
160 160 0 160 0 0 -160z m420 0 l0 -160 -160 0 -160 0 0 160 0 160 160 0 160
0 0 -160z m430 0 l0 -160 -160 0 -160 0 0 160 0 160 160 0 160 0 0 -160z m430
0 l0 -160 -160 0 -160 0 0 160 0 160 160 0 160 0 0 -160z m420 0 l0 -160 -160
0 -160 0 0 160 0 160 160 0 160 0 0 -160z m430 0 l0 -160 -160 0 -160 0 0 160
0 160 160 0 160 0 0 -160z m430 0 l0 -160 -160 0 -160 0 0 160 0 160 160 0
160 0 0 -160z m480 0 l0 -160 -190 0 -190 0 0 160 0 160 190 0 190 0 0 -160z
m-3202 -427 l-3 -158 -315 -3 c-351 -3 -379 0 -410 51 -17 27 -20 51 -20 150
l0 117 375 0 376 0 -3 -157z m480 0 l-3 -158 -185 0 -185 0 -3 158 -3 157 191
0 191 0 -3 -157z m1920 0 l-3 -158 -905 0 -905 0 -3 158 -3 157 911 0 911 0
-3 -157z m480 0 l-3 -158 -185 0 -185 0 -3 158 -3 157 191 0 191 0 -3 -157z
m422 -3 l0 -161 -157 3 -158 3 -3 158 -3 157 161 0 160 0 0 -160z m430 45 c0
-185 -21 -205 -210 -205 l-110 0 0 160 0 160 160 0 160 0 0 -115z"/>
<path d="M3865 3175 c-16 -15 -25 -36 -25 -55 0 -19 9 -40 25 -55 15 -16 36
-25 55 -25 19 0 40 9 55 25 16 15 25 36 25 55 0 19 -9 40 -25 55 -15 16 -36
25 -55 25 -19 0 -40 -9 -55 -25z"/>
<path d="M4135 3175 c-16 -15 -25 -36 -25 -55 0 -38 39 -80 74 -80 39 0 79 41
79 80 0 24 -7 40 -27 57 -35 30 -71 29 -101 -2z"/>
<path d="M4399 3171 c-16 -16 -29 -39 -29 -51 0 -30 53 -80 85 -80 36 0 75 41
75 80 0 39 -39 80 -75 80 -16 0 -38 -12 -56 -29z"/>
<path d="M550 3130 c-24 -24 -25 -38 -4 -68 15 -22 18 -22 278 -22 242 0 264
1 279 18 23 26 21 58 -5 76 -19 14 -63 16 -275 16 -240 0 -254 -1 -273 -20z"/>
</g>
</svg>
