<svg width="1048" height="1048" viewBox="0 0 1048 1048" fill="none" xmlns="http://www.w3.org/2000/svg">
<g clip-path="url(#clip0_2141_20906)">
<rect width="1048" height="1048" fill="#202023"/>
<mask id="mask0_2141_20906" style="mask-type:alpha" maskUnits="userSpaceOnUse" x="0" y="0" width="1048" height="1048">
<path d="M0 7.99998C0 3.5817 3.58172 0 8 0H1040C1044.42 0 1048 3.58172 1048 8V1040C1048 1044.42 1044.42 1048 1040 1048H7.99998C3.5817 1048 0 1044.42 0 1040V7.99998Z" fill="url(#paint0_linear_2141_20906)"/>
</mask>
<g mask="url(#mask0_2141_20906)">
</g>
<mask id="mask1_2141_20906" style="mask-type:alpha" maskUnits="userSpaceOnUse" x="0" y="0" width="1048" height="1048">
<path d="M0 7.99998C0 3.5817 3.58172 0 8 0H1040C1044.42 0 1048 3.58172 1048 8V1040C1048 1044.42 1044.42 1048 1040 1048H7.99998C3.5817 1048 0 1044.42 0 1040V7.99998Z" fill="#FF8331"/>
</mask>
<g mask="url(#mask1_2141_20906)">
<path d="M0 7.99998C0 3.5817 3.58172 0 8 0H1040C1044.42 0 1048 3.58172 1048 8V1040C1048 1044.42 1044.42 1048 1040 1048H7.99998C3.5817 1048 0 1044.42 0 1040V7.99998Z" fill="#202023"/>
<path d="M195.105 752.556C152.368 752.556 131 730.914 131 687.628V388.286C131 345.563 151.806 324.201 193.418 324.201C235.03 324.201 255.836 345.563 255.836 388.286V390.815C268.207 369.454 285.077 352.871 306.445 341.066C328.376 328.698 353.68 322.515 382.359 322.515C411.6 322.515 436.342 328.979 456.586 341.909C477.392 354.838 493.137 374.513 503.821 400.934C516.754 376.2 535.311 357.087 559.491 343.595C584.233 329.542 611.506 322.515 641.309 322.515C688.544 322.515 723.689 336.849 746.745 365.519C769.8 393.626 781.328 437.192 781.328 496.218V687.628C781.328 708.428 775.704 724.449 764.458 735.692C753.774 746.935 738.31 752.556 718.066 752.556C675.33 752.556 653.961 730.914 653.961 687.628V500.434C653.961 472.889 649.463 452.933 640.466 440.565C632.031 427.636 617.41 421.171 596.604 421.171C572.424 421.171 553.586 429.604 540.091 446.468C526.595 463.332 519.847 487.223 519.847 518.141V687.628C519.847 730.914 498.76 752.556 456.586 752.556C436.342 752.556 420.597 746.935 409.35 735.692C398.104 724.449 392.481 708.428 392.481 687.628V500.434C392.481 472.889 387.982 452.933 378.985 440.565C369.988 427.636 355.367 421.171 335.124 421.171C310.944 421.171 292.106 429.604 278.61 446.468C265.114 463.332 258.366 487.223 258.366 518.141V687.628C258.366 730.914 237.279 752.556 195.105 752.556Z" fill="white"/>
<path d="M1072.15 754.243C1023.23 754.243 981.054 745.529 945.628 728.103C910.764 710.114 883.772 685.099 864.653 653.056C846.097 620.452 836.818 582.226 836.818 538.379C836.818 495.656 845.815 458.273 863.81 426.231C882.367 393.626 907.39 368.33 938.88 350.341C970.932 331.79 1007.76 322.515 1049.38 322.515C1109.55 322.515 1157.34 341.628 1192.77 379.854C1228.2 417.517 1245.91 468.673 1245.91 533.319C1245.91 554.681 1232.69 565.362 1206.27 565.362H958.28C962.779 597.966 974.588 621.857 993.707 637.035C1013.39 651.651 1040.38 658.959 1074.68 658.959C1088.18 658.959 1103.36 657.554 1120.23 654.743C1137.66 651.37 1154.25 645.749 1170 637.878C1186.3 630.008 1200.08 628.603 1211.33 633.662C1222.57 638.16 1230.16 646.03 1234.1 657.273C1238.6 668.515 1238.6 680.32 1234.1 692.688C1230.16 704.493 1220.89 714.33 1206.27 722.2C1186.58 732.881 1164.65 740.751 1140.47 745.81C1116.86 751.432 1094.08 754.243 1072.15 754.243ZM1054.44 406.837C1027.45 406.837 1005.52 414.988 988.646 431.29C972.338 447.592 962.217 470.359 958.28 499.591H1140.47C1137.1 437.755 1108.42 406.837 1054.44 406.837Z" fill="white"/>
<path d="M1535.08 754.243C1486.16 754.243 1443.98 745.529 1408.56 728.103C1373.69 710.114 1346.7 685.099 1327.58 653.056C1309.03 620.452 1299.75 582.226 1299.75 538.379C1299.75 495.656 1308.74 458.273 1326.74 426.231C1345.3 393.626 1370.32 368.33 1401.81 350.341C1433.86 331.79 1470.69 322.515 1512.31 322.515C1572.47 322.515 1620.27 341.628 1655.7 379.854C1691.12 417.517 1708.84 468.673 1708.84 533.319C1708.84 554.681 1695.62 565.362 1669.19 565.362H1421.21C1425.71 597.966 1437.52 621.857 1456.64 637.035C1476.32 651.651 1503.31 658.959 1537.61 658.959C1551.11 658.959 1566.29 657.554 1583.16 654.743C1600.59 651.37 1617.18 645.749 1632.92 637.878C1649.23 630.008 1663.01 628.603 1674.26 633.662C1685.5 638.16 1693.09 646.03 1697.03 657.273C1701.53 668.515 1701.53 680.32 1697.03 692.688C1693.09 704.493 1683.81 714.33 1669.19 722.2C1649.51 732.881 1627.58 740.751 1603.4 745.81C1579.78 751.432 1557.01 754.243 1535.08 754.243ZM1517.37 406.837C1490.38 406.837 1468.44 414.988 1451.57 431.29C1435.27 447.592 1425.15 470.359 1421.21 499.591H1603.4C1600.03 437.755 1571.35 406.837 1517.37 406.837Z" fill="white"/>
<path d="M1848.71 752.556C1804.85 752.556 1782.92 730.914 1782.92 687.628V388.286C1782.92 345.563 1803.73 324.201 1845.34 324.201C1886.95 324.201 1907.76 345.563 1907.76 388.286V403.464C1928 353.433 1969.89 326.45 2033.44 322.515C2047.49 321.39 2058.18 325.044 2065.49 333.477C2073.36 341.347 2077.58 354.557 2078.14 373.108C2079.26 390.534 2075.61 404.307 2067.17 414.426C2059.3 424.544 2045.81 430.728 2026.69 432.976L2007.29 434.663C1944.31 440.846 1912.82 472.889 1912.82 530.79V687.628C1912.82 730.914 1891.45 752.556 1848.71 752.556Z" fill="white"/>
<path d="M2194.63 752.556C2151.9 752.556 2130.53 730.914 2130.53 687.628V207.837C2130.53 164.552 2151.9 142.909 2194.63 142.909C2236.81 142.909 2257.89 164.552 2257.89 207.837V502.12H2259.58L2381.89 366.362C2394.26 352.308 2405.5 341.909 2415.63 335.163C2425.75 327.855 2439.81 324.201 2457.8 324.201C2475.23 324.201 2488.73 328.698 2498.29 337.693C2507.85 346.125 2512.63 357.087 2512.63 370.578C2512.63 383.508 2507 396.156 2495.76 408.523L2387.79 529.103L2510.1 669.921C2520.78 683.412 2525.28 696.623 2523.59 709.552C2522.47 721.919 2516.84 732.319 2506.72 740.751C2496.6 748.621 2483.67 752.556 2467.92 752.556C2448.24 752.556 2432.78 748.902 2421.53 741.594C2410.85 734.286 2399.32 723.044 2386.95 707.866L2259.58 566.205H2257.89V687.628C2257.89 730.914 2236.81 752.556 2194.63 752.556Z" fill="white"/>
<path d="M2736.77 754.243C2705.84 754.243 2678.57 748.34 2654.95 736.535C2631.33 724.73 2612.5 708.709 2598.44 688.472C2584.94 668.234 2578.2 645.467 2578.2 620.171C2578.2 590.377 2586.07 566.486 2601.81 548.497C2617.56 530.509 2643.14 517.86 2678.57 510.552C2714 502.682 2760.95 498.747 2819.43 498.747H2849.8V484.413C2849.8 459.678 2844.17 442.252 2832.93 432.133C2821.68 421.452 2802.56 416.112 2775.57 416.112C2760.39 416.112 2743.8 418.079 2725.8 422.014C2707.81 425.387 2688.41 431.29 2667.6 439.722C2651.86 446.468 2638.65 447.03 2627.96 441.409C2617.28 435.225 2610.25 426.231 2606.87 414.426C2603.5 402.058 2604.34 389.691 2609.4 377.324C2615.03 364.957 2625.71 355.962 2641.46 350.341C2667.89 340.222 2692.63 333.195 2715.68 329.26C2739.3 324.763 2760.95 322.515 2780.63 322.515C2844.74 322.515 2892.53 337.13 2924.02 366.362C2955.51 395.032 2971.26 439.722 2971.26 500.434V687.628C2971.26 730.914 2951.58 752.556 2912.22 752.556C2872.29 752.556 2852.33 730.914 2852.33 687.628V682.569C2843.89 704.493 2829.55 721.919 2809.31 734.849C2789.63 747.778 2765.45 754.243 2736.77 754.243ZM2765.45 669.077C2789.07 669.077 2809.03 660.926 2825.34 644.624C2841.64 628.322 2849.8 607.241 2849.8 581.383V564.518H2820.28C2776.98 564.518 2746.33 568.453 2728.34 576.323C2710.34 583.631 2701.34 596.561 2701.34 615.112C2701.34 630.852 2706.69 643.781 2717.37 653.9C2728.62 664.018 2744.64 669.077 2765.45 669.077Z" fill="white"/>
<path d="M3269.55 754.243C3153.15 754.243 3094.95 697.747 3094.95 584.756V426.231H3059.52C3026.35 426.231 3009.76 410.491 3009.76 379.01C3009.76 346.968 3026.35 330.947 3059.52 330.947H3094.95V266.862C3094.95 223.577 3116.32 201.934 3159.05 201.934C3201.23 201.934 3222.32 223.577 3222.32 266.862V330.947H3302.45C3335.06 330.947 3351.37 346.968 3351.37 379.01C3351.37 410.491 3335.06 426.231 3302.45 426.231H3222.32V579.696C3222.32 603.306 3227.66 621.014 3238.34 632.819C3249.59 644.624 3267.3 650.527 3291.48 650.527C3299.92 650.527 3307.79 649.684 3315.1 647.997C3322.41 646.311 3329.16 645.186 3335.34 644.624C3343.21 644.062 3349.68 646.592 3354.74 652.213C3359.8 657.835 3362.33 669.359 3362.33 686.785C3362.33 700.839 3360.08 712.925 3355.59 723.044C3351.09 732.6 3343.22 739.627 3331.97 744.124C3324.66 746.935 3314.54 749.183 3301.6 750.87C3289.23 753.118 3278.55 754.243 3269.55 754.243Z" fill="white"/>
</g>
</g>
<defs>
<linearGradient id="paint0_linear_2141_20906" x1="-163.75" y1="-163.75" x2="1425.88" y2="749.071" gradientUnits="userSpaceOnUse">
<stop stop-color="#FFC531"/>
<stop offset="1" stop-color="#FF6600"/>
</linearGradient>
<clipPath id="clip0_2141_20906">
<rect width="1048" height="1048" fill="white"/>
</clipPath>
</defs>
</svg>
