<svg xmlns="http://www.w3.org/2000/svg" width="48" height="48" viewBox="0 0 32 32" fill="none" stroke="currentColor" stroke-width="2" stroke-linecap="round" stroke-linejoin="round">
  <defs>
    <mask id="buildingMask">
      <rect width="32" height="32" fill="white"/>
      <!-- 차량 영역을 검은색으로 마스킹 -->
      <g transform="translate(2, 8)" fill="black">
        <path d="M 3 10 L 20 10 L 20 18 L 3 18 Z"/>
      </g>
    </mask>
  </defs>
  
  <!-- 전체 컨텐츠를 캔버스에 꽉 채우도록 확대 및 위치 조정 -->
  <g transform="scale(1.2) translate(2, -1)">
    <!-- 건물 (마스크 적용) -->
    <g mask="url(#buildingMask)">
      <rect width="16" height="20" x="2" y="2" rx="2" ry="2"/>
      <path d="M7 22v-4h6v4"/>
      <path d="M6 6h.01"/>
      <path d="M14 6h.01"/>
      <path d="M10 6h.01"/>
      <path d="M10 10h.01"/>
      <path d="M10 14h.01"/>
      <path d="M14 10h.01"/>
      <path d="M14 14h.01"/>
      <path d="M6 10h.01"/>
      <path d="M6 14h.01"/>
    </g>
    
    <!-- 차량 -->
    <g transform="translate(2, 8)">
      <path d="M19 17h2c.6 0 1-.4 1-1v-3c0-.9-.7-1.7-1.5-1.9C18.7 10.6 16 10 16 10s-1.3-1.4-2.2-2.3c-.5-.4-1.1-.7-1.8-.7H5c-.6 0-1.1.4-1.4.9l-1.4 2.9A3.7 3.7 0 0 0 2 12v4c0 .6.4 1 1 1h2"/>
      <circle cx="7" cy="17" r="2"/>
      <path d="M9 17h6"/>
      <circle cx="17" cy="17" r="2"/>
    </g>
  </g>
</svg>